<?xml version="1.0" standalone="no"?>
<!DOCTYPE svg PUBLIC "-//W3C//DTD SVG 20010904//EN"
 "http://www.w3.org/TR/2001/REC-SVG-20010904/DTD/svg10.dtd">
<svg version="1.0" xmlns="http://www.w3.org/2000/svg"
 width="1024.000000pt" height="1024.000000pt" viewBox="0 0 1024.000000 1024.000000"
 preserveAspectRatio="xMidYMid meet">

<g transform="translate(0.000000,1024.000000) scale(0.100000,-0.100000)"
fill="#000000" stroke="none">
<path d="M5780 7345 c0 -9 7 -18 15 -21 8 -4 15 -11 15 -18 0 -6 7 -24 15 -40
10 -18 17 -64 19 -114 3 -78 2 -84 -20 -99 -13 -8 -24 -24 -24 -34 0 -29 -19
-32 -30 -5 -9 25 -13 26 -84 26 -41 0 -81 2 -88 5 -9 4 -21 -8 -34 -32 -11
-21 -26 -38 -34 -38 -8 0 -24 18 -35 40 -26 52 -25 51 -33 39 -9 -14 -123 -15
-139 -2 -18 14 -27 -15 -14 -41 6 -11 11 -31 11 -44 0 -28 26 -55 40 -41 5 5
10 27 12 49 2 32 7 40 23 40 16 0 21 -8 25 -45 5 -41 8 -45 34 -48 16 -2 40
-11 53 -19 12 -8 29 -13 37 -10 7 3 34 -5 59 -18 l46 -23 -34 -18 c-27 -14
-38 -16 -59 -6 -18 8 -57 8 -141 2 l-117 -10 -40 35 c-22 18 -47 43 -55 54
-19 27 -34 26 -63 -4 l-24 -25 -23 22 c-20 19 -27 20 -43 10 -12 -7 -20 -8
-20 -2 0 5 5 10 10 10 6 0 10 11 10 24 0 13 7 40 15 59 8 20 15 49 15 64 l0
28 -20 -32 c-17 -29 -25 -33 -63 -33 -36 0 -47 -5 -65 -30 -27 -36 -28 -61 -2
-78 11 -7 20 -18 20 -26 0 -7 -9 -21 -20 -31 -11 -10 -20 -26 -20 -36 0 -10
-10 -21 -22 -25 -13 -3 -30 -12 -38 -19 -8 -8 -28 -16 -45 -20 -28 -6 -29 -5
-11 9 26 21 11 36 -38 36 -45 0 -66 -13 -66 -42 0 -11 -11 -23 -26 -28 -23 -9
-25 -15 -20 -43 3 -17 8 -51 12 -75 4 -23 11 -45 15 -48 18 -10 47 7 53 31 4
14 10 25 15 25 14 0 20 -39 14 -91 -5 -45 -3 -51 26 -78 17 -16 31 -36 31 -43
0 -18 24 -40 67 -62 36 -18 125 -21 191 -6 41 10 44 9 79 -25 25 -24 37 -45
39 -70 2 -19 12 -44 23 -56 10 -11 26 -42 34 -67 15 -43 14 -47 -4 -70 -24
-31 -24 -69 0 -106 11 -17 18 -33 15 -38 -3 -4 2 -21 11 -37 8 -17 15 -44 15
-61 0 -20 5 -30 16 -30 25 0 116 32 133 47 79 69 118 113 131 147 12 32 21 42
42 44 25 3 26 2 21 -41 -3 -24 -1 -47 3 -50 19 -11 73 6 79 24 8 25 40 24 59
-2 16 -24 46 -20 46 6 0 8 7 15 16 15 9 0 18 8 21 18 2 10 14 22 26 27 12 6
23 20 25 33 3 16 10 22 29 22 21 0 24 4 20 23 -8 32 -17 105 -11 85 5 -16 51
-34 62 -23 3 3 6 24 6 47 1 31 5 43 16 43 10 0 17 14 20 44 4 38 10 46 40 62
31 17 59 19 252 19 211 0 218 -1 243 -22 l26 -23 -1 -1310 c0 -720 4 -1316 8
-1323 13 -19 561 -19 574 0 4 7 8 594 8 1303 0 710 0 1299 0 1310 0 11 7 29
16 40 14 19 30 20 431 25 l416 5 -1 232 c0 128 -3 237 -7 243 -4 7 -310 10
-970 10 l-963 0 -30 38 c-16 20 -33 56 -37 79 -5 30 -13 44 -27 49 -17 5 -20
12 -15 45 4 34 2 42 -19 56 -13 8 -27 26 -30 38 -3 13 -14 31 -25 41 -10 9
-19 22 -19 28 0 6 -16 27 -35 46 -20 19 -43 43 -53 53 -20 21 -42 22 -42 2z
m130 -395 c0 -5 -5 -10 -11 -10 -5 0 -7 5 -4 10 3 6 8 10 11 10 2 0 4 -4 4
-10z m-152 -48 c2 -7 -6 -12 -17 -12 -21 0 -27 11 -14 24 9 9 26 2 31 -12z
m-619 -76 c13 -16 -1 -56 -19 -56 -18 0 -32 40 -19 56 6 8 15 14 19 14 4 0 13
-6 19 -14z m850 -83 c-1 -10 -5 -29 -9 -43 -7 -21 -8 -22 -9 -5 -1 11 -4 30
-7 43 -5 16 -2 22 10 22 9 0 16 -8 15 -17z m-359 -54 c0 -6 -4 -7 -10 -4 -5 3
-10 11 -10 16 0 6 5 7 10 4 6 -3 10 -11 10 -16z m460 -201 c0 -6 -24 -35 -54
-65 -49 -48 -59 -53 -98 -53 -57 0 -77 12 -58 35 9 11 22 14 37 10 19 -4 31 1
52 24 20 21 34 28 49 24 14 -3 25 2 34 16 14 22 38 28 38 9z m-244 -129 c11
-18 -12 -30 -61 -32 -57 -2 -70 15 -23 30 44 15 75 15 84 2z"/>
<path d="M4380 7319 c0 -6 -14 -25 -30 -42 -62 -65 -70 -74 -70 -89 0 -8 -9
-23 -20 -33 -11 -10 -20 -25 -20 -34 0 -15 -17 -64 -48 -143 -6 -14 -18 -30
-26 -35 -8 -4 -16 -21 -18 -38 l-3 -30 -943 -2 c-519 -1 -947 -5 -953 -8 -13
-9 -12 -3162 1 -3170 16 -10 552 -7 562 3 5 5 9 294 8 669 0 548 2 662 13 671
10 9 200 13 678 14 l664 3 0 270 0 270 -664 3 c-470 1 -668 5 -678 13 -10 9
-13 79 -13 351 0 367 4 399 53 412 12 3 300 6 639 6 l617 0 30 -45 c16 -24 33
-61 37 -80 3 -20 15 -40 25 -46 11 -5 19 -20 19 -32 0 -27 10 -41 33 -50 10
-4 17 -17 17 -31 0 -14 8 -31 18 -38 10 -7 42 -41 72 -75 64 -74 88 -81 81
-25 -1 7 9 26 23 43 29 35 30 40 14 85 -9 26 -8 38 5 67 10 19 17 40 17 46 0
14 -91 101 -105 101 -6 0 -34 23 -63 52 -47 47 -51 53 -37 68 8 9 15 21 15 27
0 9 -27 26 -62 37 -10 3 -20 20 -24 43 -4 21 -15 55 -26 76 -18 36 -18 42 -4
85 8 26 16 58 18 72 2 17 10 26 25 28 18 3 22 -3 28 -37 4 -22 4 -45 0 -51 -3
-6 -1 -26 5 -45 14 -43 50 -50 50 -10 0 15 7 28 16 32 22 8 50 -10 46 -31 -2
-13 8 -16 68 -16 l70 0 -2 -32 c-2 -23 2 -33 13 -36 17 -3 24 22 33 114 4 41
13 54 37 54 14 0 19 7 19 29 0 35 -14 47 -69 60 -23 5 -51 17 -62 27 -11 10
-41 21 -67 24 -55 6 -70 33 -28 50 35 13 33 27 -13 70 l-39 37 3 74 c3 78 21
155 44 182 7 9 11 24 7 32 -6 17 -36 21 -36 4z m-93 -328 c8 -13 19 -17 39
-13 19 3 31 -1 41 -13 19 -27 17 -33 -21 -49 -33 -14 -35 -17 -33 -57 2 -34
-2 -44 -15 -47 -16 -3 -18 5 -18 67 0 60 -3 72 -20 81 -25 13 -27 50 -2 50 9
0 22 -8 29 -19z"/>
<path d="M5160 7083 c0 -13 50 -56 57 -49 4 3 -4 17 -17 31 -23 25 -40 32 -40
18z"/>
<path d="M5252 6968 c-17 -17 -15 -38 3 -38 9 0 15 9 15 25 0 29 -1 30 -18 13z"/>
<path d="M4606 6911 c-4 -5 -2 -12 3 -15 5 -4 12 -2 15 3 4 5 2 12 -3 15 -5 4
-12 2 -15 -3z"/>
<path d="M4710 6900 c0 -5 5 -10 10 -10 6 0 10 5 10 10 0 6 -4 10 -10 10 -5 0
-10 -4 -10 -10z"/>
<path d="M5382 6899 c2 -6 8 -10 13 -10 5 0 11 4 13 10 2 6 -4 11 -13 11 -9 0
-15 -5 -13 -11z"/>
<path d="M5719 5910 l-24 -19 33 -1 c21 0 32 5 32 14 0 25 -17 27 -41 6z"/>
<path d="M5618 5847 c-16 -6 -28 -19 -28 -29 0 -26 29 -22 40 6 5 13 15 26 22
29 7 3 9 5 3 5 -5 0 -22 -5 -37 -11z"/>
<path d="M4841 5667 c-15 -15 -15 -1963 -1 -1972 6 -4 133 -6 282 -6 223 0
274 2 283 14 7 9 8 326 5 993 -5 972 -5 979 -25 977 -11 -2 -69 -10 -130 -18
-120 -16 -290 -11 -362 10 -30 9 -45 9 -52 2z"/>
<path d="M1915 3321 l-80 -6 -3 -189 c-1 -107 2 -194 7 -199 5 -5 16 -5 27 1
15 8 19 23 19 72 0 53 3 65 24 81 13 11 32 17 41 14 22 -7 70 14 70 30 0 8
-24 14 -62 18 -44 4 -66 11 -76 24 -28 39 14 103 68 103 55 0 90 12 90 30 0
16 -22 33 -38 28 -4 -1 -43 -4 -87 -7z"/>
<path d="M3361 3317 c-23 -12 -23 -13 -25 -199 l-1 -188 29 -6 c47 -10 55 8
47 106 -9 100 -7 106 25 114 24 6 82 -16 96 -38 4 -6 8 -48 8 -92 0 -67 3 -83
17 -88 9 -4 20 -3 24 1 4 4 9 60 10 123 3 109 2 116 -19 126 -12 6 -30 18 -40
27 -23 21 -36 21 -52 2 -15 -18 -70 -20 -71 -2 0 6 -1 36 -2 66 -2 59 -10 67
-46 48z"/>
<path d="M4937 3324 c-4 -4 -7 -18 -7 -31 0 -20 5 -23 35 -23 22 0 43 -8 55
-20 18 -18 20 -33 20 -169 0 -127 2 -150 16 -155 9 -3 20 -4 25 0 5 3 9 70 9
150 0 145 7 184 35 184 25 0 85 33 85 47 0 10 -26 13 -112 13 -62 0 -122 3
-133 6 -11 3 -24 2 -28 -2z"/>
<path d="M2792 3298 c2 -19 9 -23 32 -21 60 4 60 43 0 43 -31 0 -35 -3 -32
-22z"/>
<path d="M4185 3311 c-9 -16 3 -31 26 -31 14 0 19 6 17 17 -4 20 -33 29 -43
14z"/>
<path d="M5325 3310 c-4 -7 -3 -16 3 -22 14 -14 47 -6 47 12 0 18 -40 26 -50
10z"/>
<path d="M6707 3271 c-30 -29 -51 -60 -58 -85 -13 -46 -3 -206 13 -206 5 0 23
-14 39 -31 28 -30 30 -31 136 -32 l108 -2 9 66 c5 36 6 87 2 112 l-7 47 -70 0
c-80 0 -86 -11 -25 -43 48 -25 63 -56 47 -96 -17 -40 -59 -57 -105 -41 -20 6
-41 20 -46 31 -6 10 -22 30 -35 43 -20 20 -25 35 -25 77 0 42 5 58 30 89 47
59 92 83 140 75 22 -4 44 -14 48 -22 12 -21 47 -12 47 12 0 32 -59 55 -135 54
-63 -2 -67 -3 -113 -48z"/>
<path d="M3747 3263 c-4 -3 -7 -14 -7 -24 0 -10 -11 -26 -25 -35 -14 -9 -25
-24 -25 -34 0 -9 11 -22 25 -28 24 -11 25 -15 25 -101 0 -82 2 -91 22 -105 29
-21 98 -21 98 -1 0 8 -13 21 -29 30 -24 12 -31 24 -36 58 -12 75 -4 100 33
109 17 5 32 13 32 17 0 23 -15 43 -36 52 -13 4 -24 17 -24 27 0 31 -35 54 -53
35z"/>
<path d="M2510 3210 c-6 -11 -19 -20 -29 -20 -10 0 -28 -8 -40 -17 -18 -15
-21 -30 -23 -105 -3 -83 -2 -88 26 -117 21 -21 41 -31 77 -36 64 -9 111 2 107
23 -3 14 -14 16 -54 14 -42 -3 -54 1 -78 23 -17 16 -26 33 -24 48 3 20 10 23
92 29 117 9 128 19 86 81 -17 25 -40 49 -50 52 -11 4 -25 15 -30 26 -14 25
-46 24 -60 -1z m64 -51 c17 -14 26 -29 24 -43 -3 -18 -11 -21 -61 -24 -68 -4
-80 11 -46 57 27 36 47 39 83 10z"/>
<path d="M6176 3212 c-3 -10 -19 -23 -35 -29 -34 -12 -62 -67 -64 -124 -1 -19
9 -58 23 -86 l24 -51 60 -6 c77 -7 141 4 141 24 0 12 -15 15 -71 15 -83 0
-117 20 -112 64 3 25 6 26 80 31 42 3 82 10 87 15 6 6 11 30 13 55 3 43 2 45
-37 63 -22 11 -44 26 -48 33 -12 20 -55 17 -61 -4z m78 -63 c36 -42 22 -59
-51 -59 -67 0 -78 18 -37 61 35 37 56 37 88 -2z"/>
<path d="M7466 3215 c-8 -9 -30 -22 -48 -30 -26 -10 -37 -24 -51 -62 -22 -61
-21 -80 3 -135 25 -58 36 -66 90 -69 83 -5 120 0 120 16 0 9 11 27 25 41 74
74 55 149 -58 222 -57 37 -60 37 -81 17z m100 -96 c3 -5 0 -41 -6 -80 -10 -60
-16 -72 -37 -80 -38 -14 -52 -11 -84 20 -25 25 -29 37 -29 81 0 47 4 56 38 89
l37 38 37 -29 c21 -16 40 -34 44 -39z"/>
<path d="M2264 3199 c-20 -14 -42 -19 -74 -17 l-45 3 0 -130 0 -130 40 0 40 0
0 95 c1 52 4 101 8 108 5 6 24 12 43 12 32 0 34 2 34 34 0 44 -9 50 -46 25z"/>
<path d="M3070 3216 c0 -2 16 -21 35 -40 21 -22 35 -46 35 -62 0 -25 -42 -74
-65 -74 -18 0 -53 82 -37 88 6 2 12 15 12 28 0 35 -34 31 -61 -7 -21 -30 -21
-33 -5 -59 22 -38 20 -67 -4 -80 -11 -6 -20 -19 -20 -30 0 -10 9 -22 20 -25
11 -3 20 -12 20 -18 0 -7 -9 -20 -20 -30 -38 -32 -17 -77 43 -91 31 -7 35 7
12 38 -20 26 -19 52 1 60 28 11 90 6 109 -8 18 -13 18 -14 1 -41 -21 -31 -9
-46 28 -37 34 8 56 33 56 63 0 37 -30 56 -100 64 -83 9 -100 14 -100 29 0 15
47 39 61 31 8 -6 67 30 81 50 4 6 8 20 8 31 0 12 7 27 15 34 8 7 15 23 15 36
0 22 -4 24 -50 24 -36 0 -52 4 -56 15 -5 13 -34 22 -34 11z"/>
<path d="M4505 3199 c-21 -14 -43 -19 -74 -17 -41 3 -46 0 -52 -22 -4 -14 -7
-71 -8 -128 -1 -113 6 -126 56 -103 19 9 23 16 16 29 -4 9 -8 47 -7 85 1 50 6
72 19 87 21 23 53 26 81 6 17 -13 19 -27 19 -113 l0 -98 40 0 40 0 3 106 3
107 -47 41 c-26 22 -50 41 -53 40 -3 0 -19 -9 -36 -20z"/>
<path d="M5645 3199 c-24 -16 -40 -19 -77 -15 l-48 5 -1 -32 c0 -18 -3 -73 -5
-123 -4 -102 4 -120 51 -108 24 6 26 9 20 45 -11 62 -9 123 4 147 16 30 57 39
81 17 16 -15 20 -34 22 -114 l3 -96 40 0 40 0 0 103 c0 90 2 105 18 114 32 17
67 1 84 -40 11 -27 14 -55 10 -104 -6 -66 -5 -68 19 -74 50 -13 54 -4 54 120
0 106 -1 115 -20 121 -11 4 -31 18 -44 32 l-24 26 -53 -27 c-65 -32 -70 -32
-107 -1 -17 14 -31 25 -33 25 -2 0 -17 -9 -34 -21z"/>
<path d="M8280 3200 c-28 -22 -61 -25 -91 -10 -16 9 -21 7 -29 -15 -12 -31 -9
-359 3 -372 14 -13 34 24 41 78 l7 50 34 -7 c74 -14 96 -9 137 29 35 32 36 34
35 111 0 72 -2 79 -26 94 -14 9 -34 27 -44 39 -22 28 -35 28 -67 3z m49 -86
c24 -30 26 -52 10 -107 -17 -64 -78 -70 -117 -11 -30 46 -29 89 4 119 36 33
77 32 103 -1z"/>
<path d="M7116 3183 c-8 -29 -11 -251 -3 -259 4 -4 19 -2 33 5 19 8 24 16 19
29 -18 46 -14 107 8 147 21 36 27 40 62 40 33 0 40 3 40 20 0 28 -47 43 -80
25 -21 -11 -30 -12 -45 -2 -26 16 -28 15 -34 -5z"/>
<path d="M7960 3170 c-8 -19 -10 -50 -7 -81 5 -42 2 -59 -16 -90 -20 -37 -25
-39 -62 -37 l-40 3 -2 90 c-2 50 -5 100 -8 113 -6 24 -33 29 -65 12 -16 -8
-17 -19 -13 -97 3 -49 10 -94 16 -102 6 -7 16 -23 22 -35 8 -16 21 -22 60 -24
27 -2 59 2 71 8 16 9 27 9 44 0 13 -7 26 -8 31 -3 5 5 8 67 7 138 -3 134 -14
163 -38 105z"/>
<path d="M2786 3182 c-8 -13 -10 -238 -2 -250 8 -13 44 -16 70 -6 13 5 16 26
16 123 0 78 -4 121 -12 129 -13 13 -64 16 -72 4z"/>
<path d="M4192 3178 c-6 -8 -10 -61 -9 -133 2 -113 3 -120 22 -120 19 0 20 7
20 129 0 128 -7 155 -33 124z"/>
<path d="M5335 3180 c-12 -19 -8 -241 4 -253 24 -24 32 10 29 133 -2 82 -7
125 -15 127 -6 2 -14 -1 -18 -7z"/>
</g>
</svg>
